<?xml version="1.0" standalone="no"?>
<!DOCTYPE svg PUBLIC "-//W3C//DTD SVG 20010904//EN"
 "http://www.w3.org/TR/2001/REC-SVG-20010904/DTD/svg10.dtd">
<svg version="1.0" xmlns="http://www.w3.org/2000/svg"
 width="746.000000pt" height="316.000000pt" viewBox="0 0 746.000000 316.000000"
 preserveAspectRatio="xMidYMid meet">
<metadata>
Created by potrace 1.16, written by Peter Selinger 2001-2019
</metadata>
<g transform="translate(0.000000,316.000000) scale(0.100000,-0.100000)"
fill="#000000" stroke="none">
<path d="M1667 2887 c-3 -7 -23 -19 -46 -27 -23 -7 -41 -17 -41 -23 0 -5 -6
-7 -14 -4 -7 3 -34 -16 -62 -44 -28 -28 -42 -49 -34 -49 11 -1 11 -3 -2 -11
-10 -5 -18 -19 -18 -29 0 -11 -4 -20 -9 -20 -13 0 -23 -46 -27 -118 -2 -44 -8
-70 -21 -85 -10 -11 -12 -17 -5 -13 24 14 12 -23 -18 -51 -16 -15 -30 -32 -30
-38 0 -5 4 -3 10 5 5 8 12 12 15 8 3 -3 -8 -22 -25 -41 -17 -20 -31 -39 -30
-44 1 -4 -3 -9 -9 -11 -6 -2 -11 1 -11 8 0 6 5 8 12 4 7 -5 8 -3 3 6 -6 11
-10 10 -19 -2 -13 -16 -50 -33 -41 -18 3 6 1 10 -4 10 -6 0 -16 -9 -23 -20
-14 -21 -34 -29 -22 -7 4 6 -4 1 -19 -13 -14 -14 -32 -25 -39 -25 -7 0 -18
-11 -25 -25 -7 -14 -13 -20 -13 -15 0 6 -4 4 -8 -3 -7 -10 -132 -38 -209 -46
-12 -1 -28 -8 -36 -15 -12 -9 -16 -9 -20 1 -3 10 -10 8 -26 -6 -11 -11 -21
-16 -21 -11 0 4 -20 -12 -45 -36 -25 -24 -45 -51 -45 -61 0 -9 -6 -21 -12 -25
-7 -4 -13 -14 -14 -20 -1 -7 -2 -22 -2 -34 -1 -11 -6 -18 -11 -15 -13 9 -7
-109 7 -126 7 -9 10 -24 6 -34 -5 -16 -4 -16 5 -4 9 13 15 8 12 -12 -1 -11 92
-98 106 -98 7 0 13 -4 13 -10 0 -5 6 -10 13 -10 7 0 28 -16 47 -35 18 -19 36
-32 39 -30 2 3 -4 12 -15 20 -10 8 -14 15 -8 15 15 0 69 -58 61 -67 -4 -3 -7
-1 -7 5 0 7 -5 12 -11 12 -8 0 -8 -5 1 -15 7 -8 16 -13 20 -10 4 3 19 -6 31
-20 13 -13 29 -25 34 -25 6 0 3 5 -5 10 -13 9 -13 10 0 10 9 0 26 -7 39 -17
26 -17 140 -23 194 -9 19 4 26 3 22 -4 -11 -18 11 -11 31 11 10 11 26 18 36
16 10 -3 18 -1 18 4 0 5 7 9 16 9 8 0 13 -4 10 -9 -3 -5 2 -15 11 -22 12 -10
14 -10 9 -1 -4 6 -2 12 3 12 22 0 4 -126 -19 -140 -9 -5 -10 -23 -5 -58 8 -59
-3 -151 -16 -131 -6 10 -9 8 -9 -8 0 -13 4 -23 9 -23 4 0 3 -18 -2 -40 -7 -25
-14 -35 -19 -27 -5 8 -8 4 -8 -10 0 -13 5 -23 12 -23 6 0 3 -9 -8 -21 -10 -12
-17 -23 -16 -26 13 -17 -123 -126 -151 -122 -7 1 -28 -1 -47 -4 -53 -10 -190
-13 -177 -5 7 4 -12 8 -41 8 -33 0 -62 -6 -79 -17 -29 -19 -74 -23 -85 -8 -5
6 -12 5 -20 -4 -11 -11 -11 -13 1 -6 9 5 12 4 8 -2 -4 -6 -18 -13 -32 -15 -13
-3 -22 -1 -19 3 3 5 1 9 -5 9 -5 0 -11 -4 -13 -8 -1 -5 -39 -26 -82 -47 -43
-21 -89 -49 -102 -62 -27 -27 -54 -75 -54 -96 0 -8 -7 -20 -15 -27 -19 -16
-19 -64 0 -80 8 -7 15 -19 15 -27 0 -35 85 -143 113 -143 5 0 23 -16 40 -35
16 -19 33 -32 38 -29 5 3 21 -9 35 -26 15 -17 29 -28 32 -25 3 3 12 -1 21 -8
9 -8 32 -20 51 -27 19 -8 39 -20 43 -27 4 -7 13 -13 20 -13 7 0 6 4 -3 10 -13
8 -13 10 1 10 9 0 24 -9 34 -20 10 -11 28 -20 39 -20 15 0 17 3 8 8 -13 9 92
7 118 -2 8 -2 49 -7 90 -10 100 -7 100 -7 100 -23 0 -19 109 -17 146 2 39 20
123 20 130 0 4 -9 18 -15 38 -14 30 1 30 1 6 10 -17 6 -8 7 30 3 79 -7 110
-14 110 -25 0 -12 97 -12 102 1 5 15 102 30 177 28 l66 -2 -75 -6 -75 -6 79
-2 c61 -2 81 2 90 13 6 9 27 17 46 19 19 2 46 8 60 14 14 5 26 6 28 1 2 -5 8
-9 13 -9 6 0 8 4 5 8 -3 5 10 14 29 19 25 8 35 8 38 -1 3 -7 9 -6 22 4 11 9
39 15 69 15 30 0 50 4 49 10 -1 6 8 12 20 12 12 1 33 5 45 8 15 4 21 2 17 -5
-10 -16 11 -12 25 5 7 8 20 15 29 15 9 0 50 17 91 39 41 21 78 39 82 40 4 1
29 11 54 22 26 11 52 18 58 16 6 -3 21 5 34 16 12 11 22 15 22 9 0 -7 5 -12
11 -12 5 0 7 5 4 10 -3 6 0 10 7 10 8 0 20 9 28 20 15 21 36 28 24 8 -4 -7 -3
-8 4 -4 6 4 9 13 6 21 -3 7 4 18 16 25 11 6 18 16 14 21 -3 6 3 17 15 25 17
13 21 25 21 75 0 44 -4 59 -14 59 -8 0 -20 20 -27 45 -7 25 -17 45 -22 45 -5
0 -7 7 -4 15 4 8 1 17 -5 21 -7 5 -8 2 -3 -7 6 -10 3 -9 -11 2 -10 9 -26 14
-34 12 -13 -4 -13 -3 0 6 10 7 19 6 29 -2 12 -10 14 -9 9 4 -7 17 -5 18 67 23
l50 4 -45 -7 -45 -8 48 -1 c34 -2 53 3 68 16 11 11 38 25 61 33 26 8 61 34 97
71 30 32 60 58 66 58 5 0 3 -5 -5 -10 -10 -7 -11 -10 -2 -10 7 0 15 7 18 15 4
8 14 15 23 15 9 0 22 5 29 12 7 7 12 8 12 2 0 -5 4 -3 9 4 5 8 20 15 34 15 14
1 23 5 21 8 -4 7 54 23 70 20 4 -1 14 3 22 10 7 6 17 8 22 5 6 -3 15 1 22 9 7
8 19 15 26 15 8 0 14 5 14 10 0 6 7 10 15 10 8 0 37 23 65 50 28 28 48 50 45
50 -3 0 0 10 6 22 21 38 15 138 -9 178 -12 19 -22 40 -22 47 0 6 -5 15 -12 19
-7 5 -8 3 -3 -5 5 -9 2 -10 -11 -3 -43 23 -93 42 -112 42 -11 0 -25 7 -32 15
-7 8 -20 15 -29 14 -12 0 -11 -2 4 -9 15 -6 9 -8 -25 -8 -25 0 -37 2 -27 5 9
2 15 9 11 14 -3 5 -9 7 -14 4 -11 -7 -5 45 6 54 5 3 9 13 9 21 0 8 7 15 15 16
8 0 28 6 43 12 35 15 58 16 37 2 -10 -7 -11 -10 -2 -10 7 0 15 6 18 14 3 8 12
17 20 20 10 4 13 1 8 -7 -3 -6 6 0 20 16 15 15 31 25 35 22 11 -6 34 21 38 43
1 9 7 18 12 20 6 2 18 20 27 40 9 20 20 45 25 54 5 10 9 25 9 33 0 8 7 15 15
15 8 0 15 5 15 11 0 5 -4 7 -10 4 -7 -4 -7 3 0 20 6 15 10 41 11 58 1 30 1 30
8 7 4 -15 7 5 7 50 0 45 -3 65 -7 50 -7 -23 -7 -23 -8 7 -1 17 -5 43 -11 58
-7 17 -7 24 0 20 19 -11 10 8 -12 26 -11 11 -19 22 -15 25 9 9 -26 44 -37 37
-6 -4 -5 0 2 9 10 13 10 18 1 24 -8 4 -9 3 -5 -4 11 -19 -9 -14 -27 6 -19 21
-22 37 -5 26 7 -4 8 -3 4 5 -6 9 -11 9 -24 -1 -9 -7 -13 -8 -9 -2 4 6 -3 20
-16 30 -21 19 -21 19 -7 0 15 -19 14 -19 -16 -3 -17 9 -36 22 -42 30 -7 8 -22
12 -37 9 -17 -3 -27 1 -31 12 -4 10 -17 16 -38 15 l-31 -1 30 -8 c21 -5 10 -7
-40 -7 -46 0 -62 3 -45 8 25 7 25 7 2 8 -13 1 -35 -8 -49 -19 -27 -21 -48 -27
-38 -10 11 18 -11 10 -30 -10 -10 -11 -20 -18 -23 -16 -2 3 -16 -6 -30 -20
-20 -18 -37 -24 -67 -23 l-40 2 40 8 c33 6 29 7 -21 4 -46 -3 -65 -1 -74 10
-16 20 -55 19 -86 -2 -26 -17 -84 -24 -84 -10 0 12 -30 8 -55 -9 -17 -11 -36
-14 -58 -10 -23 4 -28 3 -17 -4 12 -8 11 -10 -6 -10 -20 0 -26 6 -35 35 -1 6
-9 16 -16 24 -8 7 -12 20 -9 28 3 8 2 11 -3 8 -5 -3 -12 -1 -16 5 -3 5 -1 10
5 10 6 0 4 8 -6 18 -10 9 -22 17 -28 17 -6 0 -11 10 -11 22 0 12 -5 26 -9 30
-5 4 -6 2 -2 -4 4 -7 3 -13 -2 -13 -6 0 -12 7 -16 15 -3 8 -12 15 -21 15 -8 0
-15 4 -15 9 0 15 -73 45 -112 46 -22 1 -47 9 -59 21 -12 10 -19 13 -15 7 12
-21 -18 -15 -42 7 -23 22 -37 27 -26 9 4 -8 0 -8 -15 0 -11 7 -21 9 -21 6 0
-3 -12 5 -27 19 -19 18 -34 24 -49 20 -13 -3 -29 -2 -36 2 -7 5 -23 7 -35 5
-13 -1 -23 3 -23 9 0 6 5 8 13 4 8 -5 8 -2 -2 9 -15 18 -26 23 -16 7 9 -15 -4
-12 -21 4 -8 8 -14 21 -14 28 0 18 -36 48 -46 40 -5 -4 -3 0 4 10 10 12 10 18
1 24 -8 4 -9 3 -5 -4 11 -19 -9 -14 -27 6 -19 21 -22 37 -5 26 7 -4 8 -3 4 5
-4 6 -12 9 -17 6 -10 -7 -40 8 -42 21 -1 5 -5 8 -9 7 -5 -2 -8 4 -8 12 0 9 -6
12 -17 8 -11 -4 -14 -3 -9 5 4 8 2 10 -7 6 -8 -3 -21 1 -28 9 -11 11 -33 12
-96 8 -45 -3 -79 -3 -77 1 3 5 1 8 -4 8 -6 0 -12 -6 -15 -13z m196 -248 c38
-39 66 -73 63 -76 -6 -6 -318 -4 -324 2 -13 12 59 94 108 124 58 35 77 29 153
-50z m58 -111 c1 -7 1 -32 -1 -55 -1 -24 0 -43 2 -43 3 0 26 7 52 16 77 26
150 16 227 -32 56 -36 74 -42 142 -47 89 -8 153 -35 167 -73 14 -35 -1 -58
-50 -78 -22 -9 -40 -21 -40 -27 0 -6 -7 -9 -15 -5 -8 3 -31 -2 -51 -10 -27
-11 -51 -13 -88 -8 -28 3 -93 6 -143 6 l-93 0 0 26 c0 15 -3 38 -6 52 -5 20
-4 22 6 10 9 -12 10 -10 5 10 -9 33 -41 60 -71 60 -22 0 -24 5 -26 48 l-1 47
-6 -44 c-3 -25 -12 -46 -18 -49 -10 -3 -13 18 -13 83 0 47 -5 95 -10 106 -9
16 -7 19 10 19 11 0 21 -6 21 -12z m74 -220 c14 -6 25 -14 25 -17 0 -3 -107
-6 -237 -6 l-238 0 -3 -37 c-5 -56 -24 -47 -20 9 3 44 5 48 33 54 56 12 412
10 440 -3z m-205 -73 l0 -45 -45 0 c-36 0 -45 4 -46 18 -1 15 -2 15 -6 -1 -4
-16 -13 -18 -53 -15 -27 1 -46 0 -42 -4 4 -4 79 -8 167 -10 136 -3 159 -5 156
-18 -11 -38 -12 -378 -2 -490 7 -69 16 -198 21 -287 10 -183 27 -361 36 -374
3 -5 -83 -9 -209 -9 l-214 0 4 78 c2 42 10 127 18 187 8 61 17 160 19 220 3
61 8 131 12 157 8 58 -3 65 -119 80 -126 16 -136 14 -226 -30 -79 -39 -134
-52 -145 -34 -2 4 12 7 32 5 l37 -3 -32 13 c-17 6 -35 15 -39 20 -12 12 -24 8
-24 -9 0 -8 -24 11 -55 45 -47 50 -67 63 -121 81 -87 29 -105 74 -46 120 37
29 88 40 197 41 54 0 108 6 121 12 14 5 40 34 59 63 40 61 57 68 126 59 90
-13 165 -8 198 11 17 10 31 22 31 27 0 15 -22 52 -36 60 -8 4 -14 21 -14 37 0
34 9 36 148 39 l92 1 0 -45z m72 3 l4 -43 8 42 8 42 58 -2 c55 -2 59 -3 64
-29 6 -31 -1 -58 -15 -58 -5 0 -9 7 -9 15 0 8 -4 15 -10 15 -5 0 -10 -7 -10
-15 0 -28 -30 -16 -31 13 l-2 27 -4 -27 c-4 -27 -7 -28 -64 -28 l-59 0 0 39
c0 39 7 46 47 50 7 1 13 -16 15 -41z m1655 -63 c88 -40 118 -115 88 -213 -29
-99 -87 -165 -152 -178 -43 -8 -43 2 1 98 48 102 72 202 58 234 -22 46 -61 26
-114 -61 -46 -74 -101 -263 -163 -561 -19 -94 -42 -193 -50 -220 -8 -26 -12
-50 -10 -53 3 -2 51 10 108 28 76 25 127 35 202 39 94 5 99 4 86 -12 -22 -27
-76 -51 -191 -86 -151 -46 -230 -91 -298 -167 -63 -69 -95 -80 -132 -43 -24
24 -24 31 -6 73 17 40 56 80 106 112 29 18 40 33 44 57 3 18 12 74 21 125 9
51 22 148 30 215 17 137 27 180 80 318 20 52 43 114 51 137 8 23 31 63 50 90
l35 48 -36 -40 c-20 -22 -48 -60 -61 -85 -19 -33 -23 -38 -19 -18 9 48 23 75
57 114 69 79 125 91 215 49z m-427 -44 c0 -12 -230 -89 -437 -146 l-61 -17
-22 -78 c-11 -43 -30 -104 -40 -136 -11 -32 -18 -59 -16 -62 3 -2 19 -11 37
-20 49 -25 58 -46 33 -79 -12 -15 -36 -39 -55 -52 l-34 -24 45 7 c25 4 81 12
125 17 44 5 88 12 98 15 22 7 22 -3 -1 -15 -19 -10 -236 -75 -288 -85 -35 -8
-36 -10 -89 -206 -20 -74 -48 -175 -61 -223 -14 -48 -22 -92 -19 -97 12 -19
43 -9 121 38 43 27 117 72 163 101 46 28 86 49 88 47 19 -18 -97 -153 -192
-223 -124 -92 -201 -96 -287 -15 -38 35 -36 64 11 209 21 66 49 161 61 212
l23 92 -33 28 c-38 31 -34 47 14 56 18 4 46 15 61 25 26 17 27 18 7 29 -14 7
-51 6 -132 -4 -124 -15 -146 -11 -179 31 -28 36 -23 65 14 83 17 8 36 22 42
32 7 9 28 26 47 37 28 17 37 18 53 8 10 -7 45 -23 79 -35 72 -26 107 -21 123
17 12 28 61 201 61 215 0 4 -15 7 -32 7 -38 0 -98 33 -98 54 0 24 41 46 86 46
51 0 89 27 97 70 6 26 11 30 40 30 23 0 41 -8 57 -25 13 -14 34 -25 47 -25 25
0 370 57 388 64 19 8 55 6 55 -3z m-90 -288 c0 -21 -8 -51 -18 -68 -13 -20
-17 -42 -14 -69 3 -28 1 -37 -7 -31 -8 4 -14 -1 -18 -14 -6 -22 -32 -30 -29
-8 0 6 -1 12 -4 12 -3 0 -19 13 -34 28 -28 28 -68 49 -96 51 -23 2 -22 29 3
57 26 29 64 43 70 25 3 -7 10 -6 23 5 29 24 48 34 40 21 -4 -7 -2 -12 3 -12 6
0 11 4 11 9 0 8 41 28 63 30 4 1 7 -16 7 -36z m-1000 -872 c5 -11 10 -56 10
-99 l0 -80 50 -12 50 -12 0 -75 c0 -72 -1 -74 -22 -68 -56 16 -63 17 -53 8 26
-25 114 -45 228 -53 67 -4 139 -15 158 -23 20 -8 81 -18 137 -22 90 -6 100 -9
90 -24 -21 -34 -61 -53 -130 -62 -38 -5 -138 -27 -222 -48 -162 -43 -433 -96
-578 -114 -88 -10 -144 -6 -260 23 -35 8 -60 8 -100 0 -105 -23 -130 -24 -140
-5 -9 14 -21 16 -91 10 -102 -8 -237 8 -294 36 -23 11 -64 40 -90 63 -27 23
-76 61 -110 85 -35 23 -63 44 -63 46 0 3 14 12 31 21 23 11 46 14 88 10 31 -4
115 -9 187 -12 122 -5 133 -4 150 14 14 14 38 21 89 25 39 4 122 21 185 37
156 42 227 50 340 40 105 -9 170 -28 246 -71 69 -39 82 -37 19 3 -88 55 -176
80 -305 85 -82 4 -134 1 -180 -10 -36 -9 -66 -14 -67 -13 -2 2 0 23 3 49 l7
46 62 6 c70 8 68 5 80 100 3 28 8 65 11 83 l5 32 234 0 c221 0 235 -1 245 -19z"/>
<path d="M4573 2433 c3 -5 -21 -8 -54 -7 -32 0 -59 -3 -59 -8 0 -4 -6 -8 -13
-8 -21 0 -72 -28 -92 -50 -10 -11 -21 -17 -26 -14 -4 2 -13 -4 -18 -15 -7 -13
-17 -17 -31 -14 -12 3 -20 0 -20 -8 0 -7 -3 -9 -7 -6 -3 4 -12 -2 -20 -13 -7
-10 -19 -17 -26 -14 -16 6 -51 -31 -43 -45 4 -5 -4 -17 -16 -25 -12 -9 -18
-16 -13 -16 6 0 3 -5 -5 -10 -8 -5 -10 -10 -3 -10 14 0 5 -36 -13 -51 -18 -15
-18 -43 1 -59 9 -7 15 -20 13 -29 -1 -9 6 -30 18 -46 38 -57 47 -82 40 -119
-4 -20 -11 -36 -16 -36 -5 0 -7 -6 -4 -13 3 -8 -2 -20 -11 -27 -8 -7 -15 -18
-15 -25 0 -6 -9 -20 -20 -30 -24 -22 -27 -13 -4 10 9 9 14 18 12 20 -2 3 -19
-11 -37 -30 -18 -19 -26 -32 -17 -29 9 3 16 1 16 -5 0 -6 -7 -11 -17 -11 -9 0
-14 -3 -10 -6 3 -3 -5 -18 -19 -32 -20 -22 -24 -37 -24 -89 0 -40 6 -72 18
-92 16 -30 16 -32 -1 -63 -13 -22 -15 -34 -7 -36 7 -3 4 -12 -9 -26 -16 -17
-22 -37 -23 -77 0 -36 -6 -59 -17 -69 -20 -19 -23 -202 -3 -222 8 -8 12 -8 12
-1 0 6 -6 14 -12 16 -8 3 -5 6 5 6 14 1 18 -5 16 -27 -4 -30 22 -67 37 -54 5
4 3 0 -4 -10 -10 -12 -10 -18 -1 -24 8 -4 9 -3 5 4 -13 22 13 12 28 -10 9 -12
16 -18 16 -13 0 6 6 -1 13 -14 6 -14 19 -26 27 -28 13 -4 13 -3 0 6 -13 9 -13
11 1 11 9 0 22 -6 28 -13 15 -19 152 -17 175 2 14 12 16 12 10 -2 -4 -12 -1
-14 16 -10 16 4 18 8 8 14 -9 6 -7 9 9 9 12 0 27 9 33 20 6 11 15 20 21 20 6
0 7 -5 3 -12 -4 -7 -3 -8 4 -4 6 4 9 13 6 20 -3 7 2 19 11 26 8 7 15 18 15 26
0 7 9 18 20 24 11 6 20 15 20 21 0 6 -5 7 -12 3 -13 -8 -3 11 21 40 11 13 12
20 5 23 -9 3 -9 13 -1 38 5 19 14 32 19 29 4 -3 8 0 8 5 0 6 -5 11 -10 11 -7
0 -7 7 0 21 7 11 13 36 15 55 2 19 9 42 16 50 7 8 13 27 14 40 0 14 7 29 15
34 10 7 11 10 3 10 -23 0 -14 20 10 21 21 0 21 1 2 9 -11 5 -14 9 -7 9 7 1 10
6 7 11 -3 6 4 10 17 10 15 0 19 -3 11 -8 -7 -4 -11 -17 -9 -27 2 -11 7 -33 10
-50 5 -23 4 -26 -3 -10 -8 17 -10 17 -10 3 -1 -9 5 -21 13 -25 7 -4 15 -20 18
-35 3 -15 1 -25 -3 -22 -18 10 -8 -13 12 -32 11 -10 18 -26 16 -35 -3 -13 0
-16 11 -12 11 5 14 2 9 -10 -4 -10 -2 -17 4 -17 6 0 9 -7 6 -15 -4 -8 -1 -17
5 -21 7 -4 8 -3 4 4 -14 23 6 12 35 -19 16 -17 32 -28 37 -25 5 3 19 -2 31
-10 23 -16 181 -26 181 -11 0 4 18 7 40 7 22 0 40 -5 40 -11 0 -5 5 -7 10 -4
6 3 10 -1 10 -10 0 -9 5 -13 11 -10 14 9 59 -3 59 -16 0 -6 -7 -8 -16 -5 -8 3
-12 2 -9 -4 3 -5 18 -7 33 -4 19 4 33 0 41 -10 16 -20 67 -21 78 -3 4 8 21 17
36 21 19 4 26 3 22 -4 -11 -17 13 -11 27 8 17 22 55 40 93 44 23 2 30 -1 29
-14 -1 -10 4 -14 12 -11 7 2 19 -5 26 -16 7 -12 22 -21 33 -22 12 0 15 -3 7
-6 -9 -3 -4 -10 13 -19 30 -15 55 -18 55 -6 0 4 32 7 70 7 39 0 70 -3 70 -7 0
-14 15 -8 40 15 14 12 32 23 40 25 8 2 29 17 47 34 17 17 36 27 41 24 6 -3 14
-1 18 5 4 8 3 9 -4 5 -17 -10 -15 1 5 24 21 25 41 27 22 3 -11 -16 -11 -16 1
-5 8 7 16 17 16 23 1 5 2 14 3 19 4 34 103 28 145 -8 11 -10 17 -12 13 -6 -4
8 24 13 91 17 75 4 107 10 140 28 23 12 42 26 42 31 0 4 7 8 15 8 9 0 19 10
24 23 9 23 84 97 99 97 12 0 53 45 47 52 -7 7 53 68 67 68 5 0 21 9 35 20 32
25 50 26 32 3 -7 -10 14 9 47 42 34 33 57 62 52 63 -15 6 -9 20 12 27 12 4 20
15 20 28 0 18 -2 19 -10 7 -11 -16 -11 -13 5 65 4 22 3 26 -5 15 -7 -11 -10
-4 -10 28 0 23 -5 42 -11 42 -5 0 -7 -5 -3 -12 4 -7 3 -8 -4 -4 -6 4 -9 12 -6
19 2 7 -16 33 -41 56 -32 30 -45 50 -42 62 3 10 1 19 -4 21 -5 2 -10 14 -11
28 -2 14 -9 31 -15 38 -7 7 -13 19 -13 26 0 7 -25 36 -55 65 -30 29 -55 57
-55 62 0 5 -5 9 -11 9 -5 0 -7 -4 -4 -10 3 -6 -1 -7 -9 -4 -9 3 -16 10 -16 15
0 4 -7 6 -15 3 -8 -4 -22 -1 -30 6 -18 15 -173 16 -188 1 -6 -6 -18 -11 -26
-11 -14 0 -14 2 -1 11 13 9 13 10 0 7 -8 -3 -19 -14 -25 -26 -5 -12 -16 -22
-24 -22 -11 0 -11 3 0 18 7 9 -8 -3 -33 -28 -26 -24 -45 -47 -42 -49 3 -3 9 1
14 9 7 11 10 11 10 2 0 -7 -7 -15 -15 -18 -8 -4 -15 -13 -15 -21 0 -8 -4 -11
-10 -8 -5 3 -10 -1 -10 -9 0 -9 -5 -15 -12 -13 -7 1 -13 -5 -13 -13 0 -8 -7
-14 -14 -12 -7 1 -10 -1 -7 -6 3 -5 -6 -20 -19 -32 -14 -13 -25 -20 -25 -15 0
4 -9 0 -20 -10 -10 -9 -19 -20 -18 -24 2 -18 -3 -31 -13 -31 -5 0 -7 6 -3 13
4 6 -2 3 -14 -7 -23 -20 -30 -32 -12 -21 6 3 10 1 10 -4 0 -6 -9 -11 -20 -11
-12 0 -17 -5 -14 -14 7 -18 -13 -30 -51 -31 -34 0 -55 15 -55 42 0 10 -9 24
-21 31 -11 7 -18 19 -15 27 3 8 0 17 -6 21 -7 4 -8 3 -4 -4 14 -23 -10 -12
-28 13 -10 14 -24 25 -31 25 -7 0 -18 7 -25 15 -13 15 -50 21 -50 8 0 -5 -27
-8 -60 -9 -34 0 -55 3 -48 8 10 6 10 8 1 8 -7 0 -16 -6 -20 -14 -4 -7 -19 -17
-33 -20 -19 -6 -21 -5 -10 3 12 8 12 11 1 11 -7 0 -22 -11 -33 -25 -11 -14
-23 -23 -28 -20 -4 3 -14 -3 -21 -12 -10 -12 -10 -14 -1 -9 6 4 12 5 12 2 0
-3 -9 -10 -19 -16 -14 -7 -33 -6 -68 5 -26 8 -74 21 -105 31 -31 9 -59 23 -62
30 -3 8 -11 14 -18 14 -9 0 -8 -3 2 -10 8 -5 10 -10 4 -10 -6 0 -23 9 -37 20
-18 15 -40 20 -81 20 -31 0 -56 -4 -56 -9 0 -8 -29 -21 -55 -25 -5 -1 -20 -7
-32 -14 -28 -15 -36 -15 -27 1 5 8 2 7 -10 -2 -13 -11 -14 -16 -4 -23 8 -6 3
-7 -16 -3 -21 4 -27 3 -24 -7 6 -15 -47 -17 -60 -3 -4 5 -1 5 6 1 8 -5 12 1
12 18 0 14 5 26 12 26 6 0 22 10 35 22 13 12 23 16 23 10 0 -6 7 -9 16 -5 11
4 22 -1 30 -12 8 -11 14 -13 14 -6 0 8 7 10 19 6 16 -5 18 -1 16 25 -1 17 1
33 6 36 5 3 9 0 9 -6 0 -6 5 -8 10 -5 6 4 8 11 5 16 -4 5 3 9 14 9 11 0 23 5
26 10 4 6 12 9 19 8 7 -2 28 14 48 35 19 20 40 37 45 37 5 0 18 17 29 38 10
20 25 41 32 45 6 4 12 13 12 20 0 7 -4 6 -10 -3 -10 -14 -8 16 5 102 3 19 -2
31 -16 42 -11 7 -15 16 -9 18 6 2 -8 21 -31 43 -23 22 -38 33 -34 25 5 -8 -3
-5 -17 8 -22 20 -65 32 -55 15 3 -5 -24 -8 -59 -8 -35 0 -64 3 -64 8 0 4 -10
7 -22 7 -15 0 -19 -3 -11 -8 8 -5 -2 -12 -27 -19 -22 -5 -37 -6 -34 -2 3 5 -7
9 -23 9 -19 0 -24 -3 -15 -9 9 -5 0 -10 -28 -15 -48 -7 -113 2 -104 15 3 5 0
9 -5 9 -6 0 -11 -5 -11 -12 0 -6 -10 -2 -23 10 -21 20 -64 32 -54 15z m467
-194 c-118 -73 -156 -93 -220 -113 -41 -13 -114 -32 -162 -41 l-87 -18 -26
-111 c-14 -61 -39 -153 -56 -204 -17 -51 -29 -95 -27 -98 3 -2 63 3 134 11 71
8 138 15 148 15 44 0 -6 -22 -140 -61 -166 -49 -174 -53 -174 -84 0 -13 -16
-74 -36 -137 -19 -62 -46 -162 -60 -223 -30 -136 -50 -185 -76 -185 -44 0
-108 51 -108 87 0 12 11 53 26 90 23 63 104 335 104 351 0 5 -15 12 -32 17
-51 15 -44 43 18 66 l50 19 26 83 c15 45 40 120 57 167 16 47 33 104 37 128 7
42 7 42 -25 42 -42 0 -100 25 -108 46 -10 28 29 51 102 59 60 6 67 9 76 33 29
81 51 91 92 42 14 -16 27 -33 29 -38 4 -12 279 30 373 56 69 19 94 20 65 1z
m1503 -339 c35 -37 37 -43 37 -102 0 -35 -6 -89 -14 -120 -15 -66 -17 -65 64
-43 30 8 64 15 75 15 42 0 -10 -30 -85 -49 l-75 -19 -39 -63 c-57 -93 -149
-194 -202 -219 -67 -33 -123 -22 -179 35 -49 48 -61 88 -52 166 11 94 101 223
187 267 24 12 38 30 50 64 24 63 53 102 92 121 28 14 36 14 68 1 19 -8 52 -32
73 -54z m-1448 -169 c17 -10 42 -39 55 -65 26 -48 37 -56 46 -31 3 8 21 24 40
36 39 23 67 19 89 -15 14 -20 13 -28 -9 -84 -32 -80 -45 -148 -48 -244 -2 -54
1 -81 10 -90 20 -20 80 52 169 205 108 183 123 186 44 10 -82 -185 -177 -313
-232 -313 -30 0 -85 59 -98 105 -14 52 -14 96 3 173 7 35 9 65 5 68 -4 2 -32
-37 -62 -88 -91 -154 -159 -217 -212 -198 -49 18 -80 107 -64 179 48 209 88
285 177 342 25 16 48 29 51 29 4 0 20 -8 36 -19z m600 10 c3 -6 -7 -32 -22
-60 -36 -63 -27 -74 67 -79 105 -6 110 -16 65 -133 -34 -88 -85 -255 -85 -278
0 -21 29 -11 66 21 20 18 91 114 157 213 129 194 134 201 142 194 16 -16 -36
-124 -124 -256 -130 -197 -220 -277 -278 -250 -35 16 -63 68 -63 118 0 36 51
196 94 300 6 12 -2 15 -42 16 -66 1 -89 15 -102 64 -13 49 1 101 33 124 24 17
83 20 92 6z"/>
<path d="M6415 1886 c-36 -47 -76 -152 -78 -203 -2 -52 14 -70 70 -79 36 -5
43 -3 56 17 18 27 47 161 47 213 0 86 -48 113 -95 52z"/>
<path d="M6235 1598 c-33 -72 -65 -178 -65 -215 0 -25 30 -53 57 -53 30 0 112
58 145 104 17 23 41 63 54 91 l23 50 -49 11 c-58 13 -96 36 -105 64 -11 35
-25 22 -60 -52z"/>
<path d="M5051 1671 c-67 -67 -147 -381 -97 -381 20 0 71 62 135 164 55 89 60
106 43 169 -18 67 -45 84 -81 48z"/>
</g>
</svg>
